<mxfile host="app.diagrams.net" modified="2024-03-26T23:15:14.247Z" agent="Mozilla/5.0 (Windows NT 10.0; Win64; x64) AppleWebKit/537.36 (KHTML, like Gecko) Chrome/123.0.0.0 Safari/537.36" etag="OuYcBhQTNn5gxOYm9OXY" version="24.2.0" type="device">
  <diagram name="Page-1" id="bi7PsrV86GKYeguT0AIe">
    <mxGraphModel dx="4915" dy="2725" grid="1" gridSize="10" guides="1" tooltips="1" connect="1" arrows="1" fold="1" page="1" pageScale="1" pageWidth="1920" pageHeight="1200" math="0" shadow="0">
      <root>
        <mxCell id="0" />
        <mxCell id="1" parent="0" />
        <mxCell id="kygcKiqa77Ccc8PahCi--2" value="lift station site" style="rounded=1;whiteSpace=wrap;html=1;fontSize=33;fillColor=#d5e8d4;strokeColor=#82b366;" parent="1" vertex="1">
          <mxGeometry x="-970" y="-900" width="400" height="710" as="geometry" />
        </mxCell>
        <mxCell id="kygcKiqa77Ccc8PahCi--3" value="stripping" style="rounded=1;whiteSpace=wrap;html=1;" parent="1" vertex="1">
          <mxGeometry x="120" y="-500" width="120" height="60" as="geometry" />
        </mxCell>
        <mxCell id="kygcKiqa77Ccc8PahCi--4" value="sub-ex?" style="rounded=1;whiteSpace=wrap;html=1;" parent="1" vertex="1">
          <mxGeometry x="120" y="-430" width="120" height="60" as="geometry" />
        </mxCell>
        <mxCell id="kygcKiqa77Ccc8PahCi--5" value="site SG fills" style="rounded=1;whiteSpace=wrap;html=1;fillColor=#e1d5e7;strokeColor=#9673a6;" parent="1" vertex="1">
          <mxGeometry x="120" y="-350" width="120" height="60" as="geometry" />
        </mxCell>
        <mxCell id="kygcKiqa77Ccc8PahCi--7" value="LS excavation and slide rail installation" style="rounded=1;whiteSpace=wrap;html=1;fillColor=#e1d5e7;strokeColor=#9673a6;" parent="1" vertex="1">
          <mxGeometry x="120" y="-120" width="120" height="60" as="geometry" />
        </mxCell>
        <mxCell id="kygcKiqa77Ccc8PahCi--8" value="prepare base" style="rounded=1;whiteSpace=wrap;html=1;fillColor=#e1d5e7;strokeColor=#9673a6;" parent="1" vertex="1">
          <mxGeometry x="120" y="-40" width="120" height="60" as="geometry" />
        </mxCell>
        <mxCell id="kygcKiqa77Ccc8PahCi--9" value="supply / fab rebar package" style="rounded=1;whiteSpace=wrap;html=1;fillColor=#e1d5e7;strokeColor=#9673a6;" parent="1" vertex="1">
          <mxGeometry x="120" y="40" width="120" height="60" as="geometry" />
        </mxCell>
        <mxCell id="kygcKiqa77Ccc8PahCi--11" value="place lift station" style="rounded=1;whiteSpace=wrap;html=1;" parent="1" vertex="1">
          <mxGeometry x="270" y="-40" width="120" height="60" as="geometry" />
        </mxCell>
        <mxCell id="kygcKiqa77Ccc8PahCi--12" value="backfill and pull slide rail" style="rounded=1;whiteSpace=wrap;html=1;" parent="1" vertex="1">
          <mxGeometry x="270" y="40" width="120" height="60" as="geometry" />
        </mxCell>
        <mxCell id="kygcKiqa77Ccc8PahCi--13" value="forcemain piping" style="rounded=1;whiteSpace=wrap;html=1;fillColor=#e1d5e7;strokeColor=#9673a6;" parent="1" vertex="1">
          <mxGeometry x="110" y="300" width="120" height="60" as="geometry" />
        </mxCell>
        <mxCell id="kygcKiqa77Ccc8PahCi--14" value="forcemain tie-ins" style="rounded=1;whiteSpace=wrap;html=1;" parent="1" vertex="1">
          <mxGeometry x="110" y="550" width="120" height="60" as="geometry" />
        </mxCell>
        <mxCell id="kygcKiqa77Ccc8PahCi--15" value="forcemain fittings" style="rounded=1;whiteSpace=wrap;html=1;fillColor=#e1d5e7;strokeColor=#9673a6;" parent="1" vertex="1">
          <mxGeometry x="110" y="390" width="120" height="60" as="geometry" />
        </mxCell>
        <mxCell id="kygcKiqa77Ccc8PahCi--17" value="2 stubs @ PL" style="rounded=1;whiteSpace=wrap;html=1;" parent="1" vertex="1">
          <mxGeometry x="160" y="630" width="120" height="60" as="geometry" />
        </mxCell>
        <mxCell id="kygcKiqa77Ccc8PahCi--18" value="2 @ LS" style="rounded=1;whiteSpace=wrap;html=1;" parent="1" vertex="1">
          <mxGeometry x="160" y="710" width="120" height="60" as="geometry" />
        </mxCell>
        <mxCell id="kygcKiqa77Ccc8PahCi--19" value="forcemain testing" style="rounded=1;whiteSpace=wrap;html=1;" parent="1" vertex="1">
          <mxGeometry x="110" y="470" width="120" height="60" as="geometry" />
        </mxCell>
        <mxCell id="kygcKiqa77Ccc8PahCi--21" value="re/re fence + gate" style="rounded=1;whiteSpace=wrap;html=1;" parent="1" vertex="1">
          <mxGeometry x="110" y="-860" width="120" height="60" as="geometry" />
        </mxCell>
        <mxCell id="kygcKiqa77Ccc8PahCi--22" value="600mm BOSS piping" style="rounded=1;whiteSpace=wrap;html=1;fillColor=#e1d5e7;strokeColor=#9673a6;" parent="1" vertex="1">
          <mxGeometry x="100" y="970" width="120" height="60" as="geometry" />
        </mxCell>
        <mxCell id="kygcKiqa77Ccc8PahCi--23" value="2 x headwalls" style="rounded=1;whiteSpace=wrap;html=1;fillColor=#e1d5e7;strokeColor=#9673a6;" parent="1" vertex="1">
          <mxGeometry x="100" y="1050" width="120" height="60" as="geometry" />
        </mxCell>
        <mxCell id="kygcKiqa77Ccc8PahCi--24" value="locates" style="rounded=1;whiteSpace=wrap;html=1;fillColor=#e1d5e7;strokeColor=#9673a6;" parent="1" vertex="1">
          <mxGeometry x="110" y="-710" width="120" height="60" as="geometry" />
        </mxCell>
        <mxCell id="kygcKiqa77Ccc8PahCi--25" value="layout" style="rounded=1;whiteSpace=wrap;html=1;" parent="1" vertex="1">
          <mxGeometry x="110" y="-790" width="120" height="60" as="geometry" />
        </mxCell>
        <mxCell id="kygcKiqa77Ccc8PahCi--26" value="str fill material" style="rounded=1;whiteSpace=wrap;html=1;" parent="1" vertex="1">
          <mxGeometry x="270" y="-350" width="120" height="60" as="geometry" />
        </mxCell>
        <mxCell id="kygcKiqa77Ccc8PahCi--27" value="sieve/proctor" style="rounded=1;whiteSpace=wrap;html=1;" parent="1" vertex="1">
          <mxGeometry x="410" y="-350" width="120" height="60" as="geometry" />
        </mxCell>
        <mxCell id="kygcKiqa77Ccc8PahCi--28" value="density testing" style="rounded=1;whiteSpace=wrap;html=1;" parent="1" vertex="1">
          <mxGeometry x="570" y="-350" width="120" height="60" as="geometry" />
        </mxCell>
        <mxCell id="kygcKiqa77Ccc8PahCi--29" value="pea gravel??" style="rounded=1;whiteSpace=wrap;html=1;fillColor=#e1d5e7;strokeColor=#9673a6;" parent="1" vertex="1">
          <mxGeometry x="410" y="40" width="120" height="60" as="geometry" />
        </mxCell>
        <mxCell id="kygcKiqa77Ccc8PahCi--30" value="bedding sand" style="rounded=1;whiteSpace=wrap;html=1;fillColor=#e1d5e7;strokeColor=#9673a6;" parent="1" vertex="1">
          <mxGeometry x="290" y="300" width="120" height="60" as="geometry" />
        </mxCell>
        <mxCell id="kygcKiqa77Ccc8PahCi--31" value="sieve/proctor" style="rounded=1;whiteSpace=wrap;html=1;" parent="1" vertex="1">
          <mxGeometry x="450" y="300" width="120" height="60" as="geometry" />
        </mxCell>
        <mxCell id="kygcKiqa77Ccc8PahCi--32" value="density testing" style="rounded=1;whiteSpace=wrap;html=1;" parent="1" vertex="1">
          <mxGeometry x="610" y="300" width="120" height="60" as="geometry" />
        </mxCell>
        <mxCell id="kygcKiqa77Ccc8PahCi--33" value="pole hold" style="rounded=1;whiteSpace=wrap;html=1;" parent="1" vertex="1">
          <mxGeometry x="100" y="880" width="120" height="60" as="geometry" />
        </mxCell>
        <mxCell id="kygcKiqa77Ccc8PahCi--35" value="kiosk pad" style="rounded=1;whiteSpace=wrap;html=1;" parent="1" vertex="1">
          <mxGeometry x="120" y="1345" width="120" height="60" as="geometry" />
        </mxCell>
        <mxCell id="kygcKiqa77Ccc8PahCi--36" value="gen pad" style="rounded=1;whiteSpace=wrap;html=1;" parent="1" vertex="1">
          <mxGeometry x="120" y="1425" width="120" height="60" as="geometry" />
        </mxCell>
        <mxCell id="kygcKiqa77Ccc8PahCi--37" value="trans pad" style="rounded=1;whiteSpace=wrap;html=1;" parent="1" vertex="1">
          <mxGeometry x="120" y="1270" width="120" height="60" as="geometry" />
        </mxCell>
        <mxCell id="kygcKiqa77Ccc8PahCi--38" value="trenching" style="rounded=1;whiteSpace=wrap;html=1;" parent="1" vertex="1">
          <mxGeometry x="120" y="1500" width="120" height="60" as="geometry" />
        </mxCell>
        <mxCell id="kygcKiqa77Ccc8PahCi--39" value="partially insulated" style="rounded=1;whiteSpace=wrap;html=1;fillColor=#e1d5e7;strokeColor=#9673a6;" parent="1" vertex="1">
          <mxGeometry x="290" y="370" width="120" height="60" as="geometry" />
        </mxCell>
        <mxCell id="kygcKiqa77Ccc8PahCi--41" value="general" style="rounded=1;whiteSpace=wrap;html=1;fontSize=33;fillColor=#fff2cc;strokeColor=#d6b656;" parent="1" vertex="1">
          <mxGeometry x="-340" y="-890" width="400" height="310" as="geometry" />
        </mxCell>
        <mxCell id="kygcKiqa77Ccc8PahCi--47" value="site prep + ew" style="rounded=1;whiteSpace=wrap;html=1;fontSize=33;fillColor=#fff2cc;strokeColor=#d6b656;" parent="1" vertex="1">
          <mxGeometry x="-330" y="-520" width="400" height="310" as="geometry" />
        </mxCell>
        <mxCell id="kygcKiqa77Ccc8PahCi--48" value="lift station" style="rounded=1;whiteSpace=wrap;html=1;fontSize=33;fillColor=#fff2cc;strokeColor=#d6b656;" parent="1" vertex="1">
          <mxGeometry x="-320" y="-130" width="400" height="310" as="geometry" />
        </mxCell>
        <mxCell id="kygcKiqa77Ccc8PahCi--49" value="forcemain" style="rounded=1;whiteSpace=wrap;html=1;fontSize=33;fillColor=#fff2cc;strokeColor=#d6b656;" parent="1" vertex="1">
          <mxGeometry x="-330" y="280" width="400" height="310" as="geometry" />
        </mxCell>
        <mxCell id="kygcKiqa77Ccc8PahCi--50" value="culvert" style="rounded=1;whiteSpace=wrap;html=1;fontSize=33;fillColor=#fff2cc;strokeColor=#d6b656;" parent="1" vertex="1">
          <mxGeometry x="-340" y="850" width="400" height="310" as="geometry" />
        </mxCell>
        <mxCell id="kygcKiqa77Ccc8PahCi--51" value="electrical" style="rounded=1;whiteSpace=wrap;html=1;fontSize=33;fillColor=#fff2cc;strokeColor=#d6b656;" parent="1" vertex="1">
          <mxGeometry x="-350" y="1260" width="400" height="310" as="geometry" />
        </mxCell>
        <mxCell id="kygcKiqa77Ccc8PahCi--52" value="pond site" style="rounded=1;whiteSpace=wrap;html=1;fontSize=33;fillColor=#d5e8d4;strokeColor=#82b366;" parent="1" vertex="1">
          <mxGeometry x="-960" y="1710" width="400" height="710" as="geometry" />
        </mxCell>
        <mxCell id="kygcKiqa77Ccc8PahCi--53" value="general" style="rounded=1;whiteSpace=wrap;html=1;fontSize=33;fillColor=#fff2cc;strokeColor=#d6b656;" parent="1" vertex="1">
          <mxGeometry x="-350" y="1740" width="400" height="310" as="geometry" />
        </mxCell>
        <mxCell id="kygcKiqa77Ccc8PahCi--54" value="re/re fence + gate" style="rounded=1;whiteSpace=wrap;html=1;" parent="1" vertex="1">
          <mxGeometry x="100" y="1790" width="120" height="60" as="geometry" />
        </mxCell>
        <mxCell id="kygcKiqa77Ccc8PahCi--55" value="locates" style="rounded=1;whiteSpace=wrap;html=1;" parent="1" vertex="1">
          <mxGeometry x="100" y="1940" width="120" height="60" as="geometry" />
        </mxCell>
        <mxCell id="kygcKiqa77Ccc8PahCi--56" value="layout" style="rounded=1;whiteSpace=wrap;html=1;" parent="1" vertex="1">
          <mxGeometry x="100" y="1860" width="120" height="60" as="geometry" />
        </mxCell>
        <mxCell id="kygcKiqa77Ccc8PahCi--57" value="stripping" style="rounded=1;whiteSpace=wrap;html=1;" parent="1" vertex="1">
          <mxGeometry x="110" y="2120" width="120" height="60" as="geometry" />
        </mxCell>
        <mxCell id="kygcKiqa77Ccc8PahCi--63" value="site prep" style="rounded=1;whiteSpace=wrap;html=1;fontSize=33;fillColor=#fff2cc;strokeColor=#d6b656;" parent="1" vertex="1">
          <mxGeometry x="-340" y="2100" width="400" height="310" as="geometry" />
        </mxCell>
        <mxCell id="kygcKiqa77Ccc8PahCi--70" value="forcemain piping" style="rounded=1;whiteSpace=wrap;html=1;fillColor=#e1d5e7;strokeColor=#9673a6;" parent="1" vertex="1">
          <mxGeometry x="120" y="3230" width="120" height="60" as="geometry" />
        </mxCell>
        <mxCell id="kygcKiqa77Ccc8PahCi--71" value="forcemain tie-ins" style="rounded=1;whiteSpace=wrap;html=1;" parent="1" vertex="1">
          <mxGeometry x="120" y="3480" width="120" height="60" as="geometry" />
        </mxCell>
        <mxCell id="kygcKiqa77Ccc8PahCi--72" value="forcemain fittings" style="rounded=1;whiteSpace=wrap;html=1;fillColor=#e1d5e7;strokeColor=#9673a6;" parent="1" vertex="1">
          <mxGeometry x="120" y="3320" width="120" height="60" as="geometry" />
        </mxCell>
        <mxCell id="kygcKiqa77Ccc8PahCi--75" value="forcemain testing" style="rounded=1;whiteSpace=wrap;html=1;" parent="1" vertex="1">
          <mxGeometry x="120" y="3400" width="120" height="60" as="geometry" />
        </mxCell>
        <mxCell id="kygcKiqa77Ccc8PahCi--76" value="bedding sand" style="rounded=1;whiteSpace=wrap;html=1;fillColor=#e1d5e7;strokeColor=#9673a6;" parent="1" vertex="1">
          <mxGeometry x="300" y="3080" width="120" height="60" as="geometry" />
        </mxCell>
        <mxCell id="kygcKiqa77Ccc8PahCi--77" value="sieve/proctor" style="rounded=1;whiteSpace=wrap;html=1;" parent="1" vertex="1">
          <mxGeometry x="460" y="3080" width="120" height="60" as="geometry" />
        </mxCell>
        <mxCell id="kygcKiqa77Ccc8PahCi--78" value="density testing" style="rounded=1;whiteSpace=wrap;html=1;" parent="1" vertex="1">
          <mxGeometry x="620" y="3080" width="120" height="60" as="geometry" />
        </mxCell>
        <mxCell id="kygcKiqa77Ccc8PahCi--80" value="pond sanitary piping" style="rounded=1;whiteSpace=wrap;html=1;fontSize=33;fillColor=#fff2cc;strokeColor=#d6b656;" parent="1" vertex="1">
          <mxGeometry x="-320" y="3060" width="400" height="310" as="geometry" />
        </mxCell>
        <mxCell id="kygcKiqa77Ccc8PahCi--89" value="blower/chemical building" style="rounded=1;whiteSpace=wrap;html=1;fontSize=33;fillColor=#fff2cc;strokeColor=#d6b656;" parent="1" vertex="1">
          <mxGeometry x="-330" y="7370" width="400" height="310" as="geometry" />
        </mxCell>
        <mxCell id="kygcKiqa77Ccc8PahCi--90" value="cell #1" style="rounded=1;whiteSpace=wrap;html=1;fontSize=33;fillColor=#fff2cc;strokeColor=#d6b656;" parent="1" vertex="1">
          <mxGeometry x="-340" y="4660" width="400" height="310" as="geometry" />
        </mxCell>
        <mxCell id="kygcKiqa77Ccc8PahCi--91" value="bulk ex" style="rounded=1;whiteSpace=wrap;html=1;" parent="1" vertex="1">
          <mxGeometry x="120" y="4670" width="120" height="60" as="geometry" />
        </mxCell>
        <mxCell id="kygcKiqa77Ccc8PahCi--92" value="subgrade fine grading" style="rounded=1;whiteSpace=wrap;html=1;" parent="1" vertex="1">
          <mxGeometry x="120" y="4740" width="120" height="60" as="geometry" />
        </mxCell>
        <mxCell id="kygcKiqa77Ccc8PahCi--93" value="liner system" style="rounded=1;whiteSpace=wrap;html=1;" parent="1" vertex="1">
          <mxGeometry x="120" y="4810" width="120" height="60" as="geometry" />
        </mxCell>
        <mxCell id="kygcKiqa77Ccc8PahCi--94" value="NW geotextile" style="rounded=1;whiteSpace=wrap;html=1;" parent="1" vertex="1">
          <mxGeometry x="270" y="4810" width="120" height="60" as="geometry" />
        </mxCell>
        <mxCell id="kygcKiqa77Ccc8PahCi--95" value="HDPE liner" style="rounded=1;whiteSpace=wrap;html=1;" parent="1" vertex="1">
          <mxGeometry x="270" y="4880" width="120" height="60" as="geometry" />
        </mxCell>
        <mxCell id="kygcKiqa77Ccc8PahCi--96" value="UV resistant sand bag ballast" style="rounded=1;whiteSpace=wrap;html=1;" parent="1" vertex="1">
          <mxGeometry x="270" y="4950" width="120" height="60" as="geometry" />
        </mxCell>
        <mxCell id="kygcKiqa77Ccc8PahCi--97" value="cell #2" style="rounded=1;whiteSpace=wrap;html=1;fontSize=33;fillColor=#fff2cc;strokeColor=#d6b656;" parent="1" vertex="1">
          <mxGeometry x="-320" y="5120" width="400" height="310" as="geometry" />
        </mxCell>
        <mxCell id="kygcKiqa77Ccc8PahCi--98" value="bulk ex" style="rounded=1;whiteSpace=wrap;html=1;" parent="1" vertex="1">
          <mxGeometry x="140" y="5130" width="120" height="60" as="geometry" />
        </mxCell>
        <mxCell id="kygcKiqa77Ccc8PahCi--99" value="subgrade fine grading" style="rounded=1;whiteSpace=wrap;html=1;" parent="1" vertex="1">
          <mxGeometry x="140" y="5200" width="120" height="60" as="geometry" />
        </mxCell>
        <mxCell id="kygcKiqa77Ccc8PahCi--100" value="liner system" style="rounded=1;whiteSpace=wrap;html=1;" parent="1" vertex="1">
          <mxGeometry x="140" y="5270" width="120" height="60" as="geometry" />
        </mxCell>
        <mxCell id="kygcKiqa77Ccc8PahCi--101" value="NW geotextile" style="rounded=1;whiteSpace=wrap;html=1;" parent="1" vertex="1">
          <mxGeometry x="290" y="5270" width="120" height="60" as="geometry" />
        </mxCell>
        <mxCell id="kygcKiqa77Ccc8PahCi--102" value="HDPE liner" style="rounded=1;whiteSpace=wrap;html=1;" parent="1" vertex="1">
          <mxGeometry x="290" y="5340" width="120" height="60" as="geometry" />
        </mxCell>
        <mxCell id="kygcKiqa77Ccc8PahCi--103" value="UV resistant sand bag ballast" style="rounded=1;whiteSpace=wrap;html=1;fillColor=#e1d5e7;strokeColor=#9673a6;" parent="1" vertex="1">
          <mxGeometry x="290" y="5410" width="120" height="60" as="geometry" />
        </mxCell>
        <mxCell id="kygcKiqa77Ccc8PahCi--104" value="polishing cell" style="rounded=1;whiteSpace=wrap;html=1;fontSize=33;fillColor=#fff2cc;strokeColor=#d6b656;" parent="1" vertex="1">
          <mxGeometry x="-330" y="5560" width="400" height="310" as="geometry" />
        </mxCell>
        <mxCell id="kygcKiqa77Ccc8PahCi--105" value="bulk ex" style="rounded=1;whiteSpace=wrap;html=1;" parent="1" vertex="1">
          <mxGeometry x="130" y="5570" width="120" height="60" as="geometry" />
        </mxCell>
        <mxCell id="kygcKiqa77Ccc8PahCi--106" value="subgrade fine grading" style="rounded=1;whiteSpace=wrap;html=1;" parent="1" vertex="1">
          <mxGeometry x="130" y="5640" width="120" height="60" as="geometry" />
        </mxCell>
        <mxCell id="kygcKiqa77Ccc8PahCi--107" value="liner system" style="rounded=1;whiteSpace=wrap;html=1;" parent="1" vertex="1">
          <mxGeometry x="130" y="5710" width="120" height="60" as="geometry" />
        </mxCell>
        <mxCell id="kygcKiqa77Ccc8PahCi--108" value="NW geotextile" style="rounded=1;whiteSpace=wrap;html=1;fillColor=#e1d5e7;strokeColor=#9673a6;" parent="1" vertex="1">
          <mxGeometry x="280" y="5710" width="120" height="60" as="geometry" />
        </mxCell>
        <mxCell id="kygcKiqa77Ccc8PahCi--109" value="HDPE liner" style="rounded=1;whiteSpace=wrap;html=1;fillColor=#f8cecc;strokeColor=#b85450;" parent="1" vertex="1">
          <mxGeometry x="280" y="5780" width="120" height="60" as="geometry" />
        </mxCell>
        <mxCell id="kygcKiqa77Ccc8PahCi--110" value="UV resistant sand bag ballast" style="rounded=1;whiteSpace=wrap;html=1;fillColor=#e1d5e7;strokeColor=#9673a6;" parent="1" vertex="1">
          <mxGeometry x="280" y="5850" width="120" height="60" as="geometry" />
        </mxCell>
        <mxCell id="kygcKiqa77Ccc8PahCi--111" value="storage pond" style="rounded=1;whiteSpace=wrap;html=1;fontSize=33;fillColor=#fff2cc;strokeColor=#d6b656;" parent="1" vertex="1">
          <mxGeometry x="-340" y="4280" width="400" height="310" as="geometry" />
        </mxCell>
        <mxCell id="kygcKiqa77Ccc8PahCi--112" value="bulk ex" style="rounded=1;whiteSpace=wrap;html=1;" parent="1" vertex="1">
          <mxGeometry x="120" y="4290" width="120" height="60" as="geometry" />
        </mxCell>
        <mxCell id="kygcKiqa77Ccc8PahCi--113" value="subgrade fine grading" style="rounded=1;whiteSpace=wrap;html=1;" parent="1" vertex="1">
          <mxGeometry x="120" y="4360" width="120" height="60" as="geometry" />
        </mxCell>
        <mxCell id="kygcKiqa77Ccc8PahCi--114" value="liner system" style="rounded=1;whiteSpace=wrap;html=1;" parent="1" vertex="1">
          <mxGeometry x="120" y="4430" width="120" height="60" as="geometry" />
        </mxCell>
        <mxCell id="kygcKiqa77Ccc8PahCi--115" value="NW geotextile" style="rounded=1;whiteSpace=wrap;html=1;fillColor=#e1d5e7;strokeColor=#9673a6;" parent="1" vertex="1">
          <mxGeometry x="270" y="4430" width="120" height="60" as="geometry" />
        </mxCell>
        <mxCell id="kygcKiqa77Ccc8PahCi--116" value="HDPE liner" style="rounded=1;whiteSpace=wrap;html=1;fillColor=#f8cecc;strokeColor=#b85450;" parent="1" vertex="1">
          <mxGeometry x="270" y="4500" width="120" height="60" as="geometry" />
        </mxCell>
        <mxCell id="kygcKiqa77Ccc8PahCi--117" value="UV resistant sand bag ballast" style="rounded=1;whiteSpace=wrap;html=1;fillColor=#e1d5e7;strokeColor=#9673a6;" parent="1" vertex="1">
          <mxGeometry x="270" y="4570" width="120" height="60" as="geometry" />
        </mxCell>
        <mxCell id="KoJERbD4u0Qso-WpafZh-2" value="cut-fill" style="rounded=1;whiteSpace=wrap;html=1;" parent="1" vertex="1">
          <mxGeometry x="120" y="2510" width="120" height="60" as="geometry" />
        </mxCell>
        <mxCell id="KoJERbD4u0Qso-WpafZh-3" value="pond access road" style="rounded=1;whiteSpace=wrap;html=1;fontSize=33;fillColor=#fff2cc;strokeColor=#d6b656;" parent="1" vertex="1">
          <mxGeometry x="-320" y="2490" width="400" height="310" as="geometry" />
        </mxCell>
        <mxCell id="KoJERbD4u0Qso-WpafZh-4" value="subgrade prep" style="rounded=1;whiteSpace=wrap;html=1;" parent="1" vertex="1">
          <mxGeometry x="120" y="2580" width="120" height="60" as="geometry" />
        </mxCell>
        <mxCell id="KoJERbD4u0Qso-WpafZh-5" value="NW geotextile" style="rounded=1;whiteSpace=wrap;html=1;fillColor=#e1d5e7;strokeColor=#9673a6;" parent="1" vertex="1">
          <mxGeometry x="120" y="2650" width="120" height="60" as="geometry" />
        </mxCell>
        <mxCell id="KoJERbD4u0Qso-WpafZh-6" value="sub-base gravels" style="rounded=1;whiteSpace=wrap;html=1;fillColor=#e1d5e7;strokeColor=#9673a6;" parent="1" vertex="1">
          <mxGeometry x="120" y="2720" width="120" height="60" as="geometry" />
        </mxCell>
        <mxCell id="KoJERbD4u0Qso-WpafZh-7" value="base gravels" style="rounded=1;whiteSpace=wrap;html=1;fillColor=#e1d5e7;strokeColor=#9673a6;" parent="1" vertex="1">
          <mxGeometry x="120" y="2790" width="120" height="60" as="geometry" />
        </mxCell>
        <mxCell id="KoJERbD4u0Qso-WpafZh-8" value="hydroseeding" style="rounded=1;whiteSpace=wrap;html=1;fillColor=#e1d5e7;strokeColor=#9673a6;" parent="1" vertex="1">
          <mxGeometry x="120" y="2860" width="120" height="60" as="geometry" />
        </mxCell>
        <mxCell id="KoJERbD4u0Qso-WpafZh-9" value="ditching" style="rounded=1;whiteSpace=wrap;html=1;" parent="1" vertex="1">
          <mxGeometry x="120" y="2930" width="120" height="60" as="geometry" />
        </mxCell>
        <mxCell id="KoJERbD4u0Qso-WpafZh-10" value="pinch valve" style="rounded=1;whiteSpace=wrap;html=1;fontSize=33;fillColor=#fff2cc;strokeColor=#d6b656;" parent="1" vertex="1">
          <mxGeometry x="-340" y="3800" width="400" height="310" as="geometry" />
        </mxCell>
        <mxCell id="KoJERbD4u0Qso-WpafZh-11" value="sweeps" style="rounded=1;whiteSpace=wrap;html=1;fillColor=#e1d5e7;strokeColor=#9673a6;" parent="1" vertex="1">
          <mxGeometry x="120" y="3880" width="120" height="60" as="geometry" />
        </mxCell>
        <mxCell id="KoJERbD4u0Qso-WpafZh-12" value="concrete pad" style="rounded=1;whiteSpace=wrap;html=1;" parent="1" vertex="1">
          <mxGeometry x="120" y="3800" width="120" height="60" as="geometry" />
        </mxCell>
        <mxCell id="KoJERbD4u0Qso-WpafZh-13" value="thrust blocks" style="rounded=1;whiteSpace=wrap;html=1;" parent="1" vertex="1">
          <mxGeometry x="120" y="3960" width="120" height="60" as="geometry" />
        </mxCell>
        <mxCell id="KoJERbD4u0Qso-WpafZh-14" value="above ground mechanic" style="rounded=1;whiteSpace=wrap;html=1;fillColor=#d5e8d4;strokeColor=#82b366;" parent="1" vertex="1">
          <mxGeometry x="120" y="4040" width="120" height="60" as="geometry" />
        </mxCell>
        <mxCell id="KoJERbD4u0Qso-WpafZh-15" value="kiosk" style="rounded=1;whiteSpace=wrap;html=1;fillColor=#d5e8d4;strokeColor=#82b366;" parent="1" vertex="1">
          <mxGeometry x="120" y="4120" width="120" height="60" as="geometry" />
        </mxCell>
        <mxCell id="KoJERbD4u0Qso-WpafZh-16" value="incidental utilities/piping" style="rounded=1;whiteSpace=wrap;html=1;fontSize=33;fillColor=#fff2cc;strokeColor=#d6b656;" parent="1" vertex="1">
          <mxGeometry x="-340" y="8050" width="400" height="310" as="geometry" />
        </mxCell>
        <mxCell id="KoJERbD4u0Qso-WpafZh-17" value="irrigation service tie-in" style="rounded=1;whiteSpace=wrap;html=1;fillColor=#e1d5e7;strokeColor=#9673a6;" parent="1" vertex="1">
          <mxGeometry x="110" y="8060" width="120" height="60" as="geometry" />
        </mxCell>
        <mxCell id="KoJERbD4u0Qso-WpafZh-18" value="chemical contact pipe" style="rounded=1;whiteSpace=wrap;html=1;fillColor=#f8cecc;strokeColor=#b85450;" parent="1" vertex="1">
          <mxGeometry x="120" y="3070" width="120" height="60" as="geometry" />
        </mxCell>
        <mxCell id="KoJERbD4u0Qso-WpafZh-19" value="chemical sample line" style="rounded=1;whiteSpace=wrap;html=1;fillColor=#f8cecc;strokeColor=#b85450;" parent="1" vertex="1">
          <mxGeometry x="120" y="3150" width="120" height="60" as="geometry" />
        </mxCell>
        <mxCell id="KoJERbD4u0Qso-WpafZh-20" value="aeration" style="rounded=1;whiteSpace=wrap;html=1;fontSize=33;fillColor=#fff2cc;strokeColor=#d6b656;" parent="1" vertex="1">
          <mxGeometry x="-330" y="5980" width="400" height="310" as="geometry" />
        </mxCell>
        <mxCell id="KoJERbD4u0Qso-WpafZh-21" value="aeration buried piping" style="rounded=1;whiteSpace=wrap;html=1;" parent="1" vertex="1">
          <mxGeometry x="130" y="5990" width="120" height="60" as="geometry" />
        </mxCell>
        <mxCell id="KoJERbD4u0Qso-WpafZh-22" value="NEXOM system" style="rounded=1;whiteSpace=wrap;html=1;" parent="1" vertex="1">
          <mxGeometry x="130" y="6200" width="120" height="60" as="geometry" />
        </mxCell>
        <mxCell id="KoJERbD4u0Qso-WpafZh-23" value="aeration header" style="rounded=1;whiteSpace=wrap;html=1;fillColor=#d5e8d4;strokeColor=#82b366;" parent="1" vertex="1">
          <mxGeometry x="210" y="6290" width="120" height="60" as="geometry" />
        </mxCell>
        <mxCell id="KoJERbD4u0Qso-WpafZh-24" value="aeration laterals" style="rounded=1;whiteSpace=wrap;html=1;fillColor=#d5e8d4;strokeColor=#82b366;" parent="1" vertex="1">
          <mxGeometry x="210" y="6430" width="120" height="60" as="geometry" />
        </mxCell>
        <mxCell id="KoJERbD4u0Qso-WpafZh-25" value="header blow-off assemblies" style="rounded=1;whiteSpace=wrap;html=1;fillColor=#d5e8d4;strokeColor=#82b366;" parent="1" vertex="1">
          <mxGeometry x="210" y="6360" width="120" height="60" as="geometry" />
        </mxCell>
        <mxCell id="KoJERbD4u0Qso-WpafZh-26" value="bulk excavation" style="rounded=1;whiteSpace=wrap;html=1;" parent="1" vertex="1">
          <mxGeometry x="110" y="7380" width="120" height="60" as="geometry" />
        </mxCell>
        <mxCell id="KoJERbD4u0Qso-WpafZh-27" value="foundation prep" style="rounded=1;whiteSpace=wrap;html=1;" parent="1" vertex="1">
          <mxGeometry x="110" y="7450" width="120" height="60" as="geometry" />
        </mxCell>
        <mxCell id="KoJERbD4u0Qso-WpafZh-28" value="foundation backfill" style="rounded=1;whiteSpace=wrap;html=1;" parent="1" vertex="1">
          <mxGeometry x="110" y="7590" width="120" height="60" as="geometry" />
        </mxCell>
        <mxCell id="KoJERbD4u0Qso-WpafZh-29" value="slab prep" style="rounded=1;whiteSpace=wrap;html=1;" parent="1" vertex="1">
          <mxGeometry x="110" y="7660" width="120" height="60" as="geometry" />
        </mxCell>
        <mxCell id="KoJERbD4u0Qso-WpafZh-30" value="exterior wall backfill" style="rounded=1;whiteSpace=wrap;html=1;" parent="1" vertex="1">
          <mxGeometry x="110" y="7730" width="120" height="60" as="geometry" />
        </mxCell>
        <mxCell id="KoJERbD4u0Qso-WpafZh-31" value="perimeter drain" style="rounded=1;whiteSpace=wrap;html=1;" parent="1" vertex="1">
          <mxGeometry x="110" y="7520" width="120" height="60" as="geometry" />
        </mxCell>
        <mxCell id="KoJERbD4u0Qso-WpafZh-32" value="underslab plumbing?" style="rounded=1;whiteSpace=wrap;html=1;" parent="1" vertex="1">
          <mxGeometry x="110" y="7800" width="120" height="60" as="geometry" />
        </mxCell>
        <mxCell id="KoJERbD4u0Qso-WpafZh-33" value="building construction" style="rounded=1;whiteSpace=wrap;html=1;fillColor=#d5e8d4;strokeColor=#82b366;" parent="1" vertex="1">
          <mxGeometry x="110" y="7870" width="120" height="60" as="geometry" />
        </mxCell>
        <mxCell id="KoJERbD4u0Qso-WpafZh-34" value="process mechanical?" style="rounded=1;whiteSpace=wrap;html=1;fillColor=#d5e8d4;strokeColor=#82b366;" parent="1" vertex="1">
          <mxGeometry x="110" y="7940" width="120" height="60" as="geometry" />
        </mxCell>
        <mxCell id="KoJERbD4u0Qso-WpafZh-35" value="manholes" style="rounded=1;whiteSpace=wrap;html=1;fillColor=#e1d5e7;strokeColor=#9673a6;" parent="1" vertex="1">
          <mxGeometry x="120" y="3560" width="120" height="60" as="geometry" />
        </mxCell>
        <mxCell id="KoJERbD4u0Qso-WpafZh-36" value="weirs" style="rounded=1;whiteSpace=wrap;html=1;fontSize=33;fillColor=#fff2cc;strokeColor=#d6b656;" parent="1" vertex="1">
          <mxGeometry x="-330" y="6940" width="400" height="310" as="geometry" />
        </mxCell>
        <mxCell id="KoJERbD4u0Qso-WpafZh-37" value="stop logs" style="rounded=1;whiteSpace=wrap;html=1;fillColor=#f8cecc;strokeColor=#b85450;" parent="1" vertex="1">
          <mxGeometry x="110" y="6950" width="120" height="60" as="geometry" />
        </mxCell>
        <mxCell id="KoJERbD4u0Qso-WpafZh-38" value="compacted fill" style="rounded=1;whiteSpace=wrap;html=1;" parent="1" vertex="1">
          <mxGeometry x="110" y="7030" width="120" height="60" as="geometry" />
        </mxCell>
        <mxCell id="KoJERbD4u0Qso-WpafZh-39" value="liner overlap" style="rounded=1;whiteSpace=wrap;html=1;" parent="1" vertex="1">
          <mxGeometry x="110" y="7110" width="120" height="60" as="geometry" />
        </mxCell>
        <mxCell id="KoJERbD4u0Qso-WpafZh-40" value="domestic buried water tank" style="rounded=1;whiteSpace=wrap;html=1;fillColor=#f8cecc;strokeColor=#b85450;" parent="1" vertex="1">
          <mxGeometry x="110" y="8130" width="120" height="60" as="geometry" />
        </mxCell>
        <mxCell id="KoJERbD4u0Qso-WpafZh-41" value="Seametrics flowmeter&lt;div&gt;AG3000 - flanged&lt;/div&gt;" style="rounded=1;whiteSpace=wrap;html=1;fillColor=#f8cecc;strokeColor=#b85450;" parent="1" vertex="1">
          <mxGeometry x="120" y="3630" width="120" height="60" as="geometry" />
        </mxCell>
        <mxCell id="KoJERbD4u0Qso-WpafZh-42" value="pour base" style="rounded=1;whiteSpace=wrap;html=1;fillColor=#e1d5e7;strokeColor=#9673a6;" parent="1" vertex="1">
          <mxGeometry x="120" y="110" width="120" height="60" as="geometry" />
        </mxCell>
        <mxCell id="KoJERbD4u0Qso-WpafZh-43" value="lift station supply" style="rounded=1;whiteSpace=wrap;html=1;fillColor=#e1d5e7;strokeColor=#9673a6;" parent="1" vertex="1">
          <mxGeometry x="270" y="-120" width="120" height="60" as="geometry" />
        </mxCell>
        <mxCell id="KoJERbD4u0Qso-WpafZh-44" value="NW geotextile" style="rounded=1;whiteSpace=wrap;html=1;fillColor=#e1d5e7;strokeColor=#9673a6;" parent="1" vertex="1">
          <mxGeometry x="270" y="4810" width="120" height="60" as="geometry" />
        </mxCell>
        <mxCell id="KoJERbD4u0Qso-WpafZh-45" value="HDPE liner" style="rounded=1;whiteSpace=wrap;html=1;fillColor=#f8cecc;strokeColor=#b85450;" parent="1" vertex="1">
          <mxGeometry x="270" y="4880" width="120" height="60" as="geometry" />
        </mxCell>
        <mxCell id="KoJERbD4u0Qso-WpafZh-46" value="UV resistant sand bag ballast" style="rounded=1;whiteSpace=wrap;html=1;fillColor=#e1d5e7;strokeColor=#9673a6;" parent="1" vertex="1">
          <mxGeometry x="270" y="4950" width="120" height="60" as="geometry" />
        </mxCell>
        <mxCell id="KoJERbD4u0Qso-WpafZh-47" value="NW geotextile" style="rounded=1;whiteSpace=wrap;html=1;fillColor=#e1d5e7;strokeColor=#9673a6;" parent="1" vertex="1">
          <mxGeometry x="290" y="5270" width="120" height="60" as="geometry" />
        </mxCell>
        <mxCell id="KoJERbD4u0Qso-WpafZh-48" value="HDPE liner" style="rounded=1;whiteSpace=wrap;html=1;fillColor=#f8cecc;strokeColor=#b85450;" parent="1" vertex="1">
          <mxGeometry x="290" y="5340" width="120" height="60" as="geometry" />
        </mxCell>
        <mxCell id="KoJERbD4u0Qso-WpafZh-49" value="fixed anchor posts&lt;div&gt;cw/ CIP concrete&lt;/div&gt;" style="rounded=1;whiteSpace=wrap;html=1;" parent="1" vertex="1">
          <mxGeometry x="350" y="6280" width="120" height="60" as="geometry" />
        </mxCell>
        <mxCell id="KoJERbD4u0Qso-WpafZh-50" value="bubble diffusors" style="rounded=1;whiteSpace=wrap;html=1;fillColor=#d5e8d4;strokeColor=#82b366;" parent="1" vertex="1">
          <mxGeometry x="210" y="6500" width="120" height="60" as="geometry" />
        </mxCell>
        <mxCell id="KoJERbD4u0Qso-WpafZh-52" value="stainless steel cables for lateral anchoring" style="rounded=1;whiteSpace=wrap;html=1;" parent="1" vertex="1">
          <mxGeometry x="350" y="6350" width="120" height="60" as="geometry" />
        </mxCell>
        <mxCell id="KoJERbD4u0Qso-WpafZh-53" value="lateral anchor post with self-adjusting tension assembly&lt;div&gt;cw/ CIP concrete&lt;br&gt;&lt;/div&gt;" style="rounded=1;whiteSpace=wrap;html=1;" parent="1" vertex="1">
          <mxGeometry x="350" y="6430" width="120" height="60" as="geometry" />
        </mxCell>
        <mxCell id="KoJERbD4u0Qso-WpafZh-54" value="worm gear winch" style="rounded=1;whiteSpace=wrap;html=1;" parent="1" vertex="1">
          <mxGeometry x="350" y="6500" width="120" height="60" as="geometry" />
        </mxCell>
        <mxCell id="KoJERbD4u0Qso-WpafZh-55" value="outlet connections cw/ blind flanges" style="rounded=1;whiteSpace=wrap;html=1;" parent="1" vertex="1">
          <mxGeometry x="130" y="6130" width="120" height="60" as="geometry" />
        </mxCell>
        <mxCell id="KoJERbD4u0Qso-WpafZh-56" value="outlet connection" style="rounded=1;whiteSpace=wrap;html=1;" parent="1" vertex="1">
          <mxGeometry x="130" y="6060" width="120" height="60" as="geometry" />
        </mxCell>
        <mxCell id="KoJERbD4u0Qso-WpafZh-57" value="butterfly valve at each outlet" style="rounded=1;whiteSpace=wrap;html=1;" parent="1" vertex="1">
          <mxGeometry x="270" y="6060" width="120" height="60" as="geometry" />
        </mxCell>
      </root>
    </mxGraphModel>
  </diagram>
</mxfile>
